<svg width="132" height="88" viewBox="0 0 132 88" fill="none" xmlns="http://www.w3.org/2000/svg">
<path d="M128.772 62.4784C122.221 69.6254 103.951 50.1788 89.4355 55.5529C74.9198 60.9271 76.0833 25.8013 89.4355 31.8126C102.788 37.8239 119.907 16.9368 128.772 24.3747C137.637 31.8126 118.744 45.885 128.772 62.4784Z" fill="#EC8C92"/>
<path d="M18.9624 35.2196C18.9624 35.2196 33.8659 5.24638 42.5089 7.73954C46.1378 8.80605 42.592 12.4211 46.2902 13.2106C52.066 14.4157 55.6118 -0.972655 64.8088 0.301625C72.039 1.31274 65.8753 11.8394 71.7343 13.1691C75.3493 14.0001 82.8981 8.62596 85.0034 11.687C88.0506 16.147 75.931 29.984 75.931 29.984L18.9624 35.2196Z" fill="#EC8C92"/>
<path d="M44.8221 70.3594C44.8221 70.3594 79.8925 81.4401 75.7234 85.8031C71.5542 90.1661 39.2263 86.7865 44.8221 70.3594Z" fill="#EC8C92"/>
<path d="M59.2819 77.9491C36.6081 77.9491 1.6623 56.314 1.78695 49.1947C1.78695 45.3441 6.13615 40.8842 11.6765 36.7289C24.3903 27.3555 39.7883 22.3329 55.5837 22.4071H73.0358C79.2807 22.4071 85.2699 24.8878 89.6857 29.3037C94.1015 33.7195 96.5823 39.7086 96.5823 45.9535V45.9535C96.6239 66.3559 79.5734 77.9491 59.2819 77.9491Z" fill="#F2BDBA"/>
<path d="M31.4282 52.9208C29.7845 52.9208 28.1778 52.4335 26.8112 51.5203C25.4445 50.6071 24.3793 49.3091 23.7503 47.7906C23.1213 46.272 22.9567 44.6011 23.2774 42.989C23.598 41.3769 24.3896 39.8961 25.5518 38.7338C26.714 37.5716 28.1948 36.7802 29.8069 36.4595C31.419 36.1388 33.09 36.3034 34.6085 36.9324C36.1271 37.5614 37.425 38.6266 38.3382 39.9932C39.2513 41.3599 39.7387 42.9667 39.7387 44.6103C39.7387 46.8144 38.8632 48.9282 37.3047 50.4867C35.7461 52.0452 33.6323 52.9208 31.4282 52.9208V52.9208ZM31.4282 39.1669C30.3324 39.1669 29.2613 39.4918 28.3502 40.1006C27.4391 40.7094 26.7289 41.5747 26.3096 42.587C25.8903 43.5994 25.7806 44.7134 25.9944 45.7881C26.2081 46.8628 26.7358 47.8501 27.5107 48.6249C28.2855 49.3997 29.2726 49.9273 30.3474 50.1411C31.4221 50.3549 32.5361 50.2452 33.5484 49.8259C34.5608 49.4065 35.4261 48.6965 36.0349 47.7854C36.6437 46.8742 36.9685 45.8031 36.9685 44.7073C36.9685 43.9797 36.8253 43.2592 36.5469 42.587C36.2684 41.9149 35.8603 41.3041 35.3458 40.7897C34.8313 40.2752 34.2206 39.867 33.5484 39.5886C32.8762 39.3102 32.1558 39.1669 31.4282 39.1669V39.1669Z" fill="white"/>
<path d="M48.1876 69.3344C47.8687 69.3318 47.5605 69.2193 47.3149 69.0158C47.1737 68.9005 47.0566 68.7584 46.9704 68.5978C46.8841 68.4371 46.8305 68.2611 46.8124 68.0796C46.7944 67.8982 46.8124 67.7149 46.8654 67.5404C46.9183 67.366 47.0052 67.2036 47.121 67.0628C50.3922 63.0611 52.3813 58.1663 52.8285 53.0171C53.2757 47.8678 52.1603 42.7034 49.628 38.1976C49.5371 38.0394 49.4782 37.8648 49.4547 37.6838C49.4312 37.5028 49.4437 37.3189 49.4913 37.1427C49.5389 36.9665 49.6207 36.8014 49.7321 36.6568C49.8435 36.5123 49.9822 36.391 50.1405 36.3001C50.2987 36.2091 50.4734 36.1502 50.6544 36.1268C50.8354 36.1033 51.0192 36.1157 51.1955 36.1633C51.3717 36.2109 51.5367 36.2927 51.6813 36.4041C51.8259 36.5155 51.9471 36.6543 52.0381 36.8126C54.8455 41.8038 56.083 47.5256 55.5888 53.2309C55.0946 58.9362 52.8918 64.36 49.2679 68.7942C49.1403 68.9599 48.9768 69.0947 48.7897 69.1883C48.6026 69.2818 48.3967 69.3318 48.1876 69.3344V69.3344Z" fill="black"/>
<path d="M38.2983 70.5808C38.0948 70.5811 37.8937 70.5366 37.7094 70.4504C37.5251 70.3642 37.362 70.2385 37.2317 70.0821C23.9903 54.2229 2.03677 51.6189 1.81515 51.5912C1.45207 51.5494 1.12021 51.3659 0.891902 51.0805C0.66359 50.7951 0.557326 50.431 0.596269 50.0676C0.615275 49.8866 0.669764 49.7111 0.756639 49.5512C0.843514 49.3912 0.961073 49.25 1.10257 49.1355C1.24407 49.021 1.40668 48.9355 1.58123 48.8839C1.75579 48.8323 1.93883 48.8157 2.11983 48.8349C3.07554 48.9457 25.417 51.605 39.3648 68.3092C39.4815 68.4492 39.5693 68.6108 39.6234 68.7847C39.6774 68.9587 39.6967 69.1417 39.68 69.3231C39.6633 69.5045 39.6109 69.6808 39.5259 69.842C39.4409 70.0031 39.325 70.1459 39.1848 70.2621C38.9356 70.4686 38.6219 70.5814 38.2983 70.5808V70.5808Z" fill="black"/>
</svg>
