<svg width="1205" height="896" viewBox="0 0 1205 896" fill="none" xmlns="http://www.w3.org/2000/svg">
<path d="M793.378 492.135V489.365H777.255C774.615 489.361 772.084 488.311 770.218 486.444C768.351 484.577 767.3 482.046 767.297 479.406V430.748H725.924V433.518C725.924 434.599 725.633 541.887 725.924 570.78V577.623L730.633 572.664C745.689 556.819 764.263 556.611 782.214 556.417C784.984 556.417 787.893 556.417 790.677 556.251L793.309 556.168V553.522C793.669 529.74 793.378 492.509 793.378 492.135ZM790.608 553.522C770.275 554.229 747.005 551.5 728.653 570.794C728.362 541.583 728.653 433.574 728.653 433.574H764.499V479.434C764.499 481.105 764.828 482.761 765.468 484.305C766.107 485.849 767.045 487.253 768.227 488.435C769.409 489.617 770.812 490.554 772.357 491.194C773.901 491.834 775.556 492.163 777.228 492.163H790.608C790.608 492.163 790.899 529.449 790.608 553.522V553.522Z" fill="#74BAAB"/>
<path d="M819.764 423.02C821.675 415.305 824.016 405.567 826.537 394.847C828.15 387.972 832.036 381.842 837.566 377.45C843.096 373.059 849.947 370.662 857.009 370.649H902.564C911.178 370.644 919.569 367.913 926.535 362.847C933.502 357.781 938.686 350.641 941.347 342.449C940.308 342.449 939.255 342.518 938.134 342.518C910.113 342.518 910.113 327.504 882.107 327.504C854.1 327.504 854.17 342.518 826.094 342.518C798.018 342.518 798.087 327.504 770.067 327.504C742.047 327.504 742.061 342.518 714.04 342.518C686.02 342.518 686.02 327.504 658.014 327.504C630.007 327.504 629.993 342.518 601.987 342.518C573.98 342.518 574.008 327.504 546.015 327.504C518.023 327.504 517.995 342.518 489.989 342.518C461.982 342.518 461.968 327.504 433.962 327.504C405.955 327.504 405.955 342.518 377.935 342.518C349.915 342.518 349.929 327.504 321.922 327.504C293.916 327.504 293.916 342.518 265.895 342.518C258.928 342.705 251.998 341.436 245.548 338.792C244.036 344.552 243.272 350.483 243.277 356.438V356.438C243.277 502.717 384.39 617.555 530.682 617.555H635.035C668.096 617.555 699.803 604.421 723.181 581.043C746.559 557.666 759.693 525.958 759.693 492.897C759.693 472.841 777.699 460.625 795.996 454.71C815.623 448.38 815.276 441.026 819.764 423.02Z" fill="#74BAAB"/>
<path d="M551.847 61.9688C536.965 61.9688 522.694 67.8803 512.171 78.403C501.648 88.9256 495.737 103.197 495.737 118.079V173.731H533.273V118.079C533.276 113.154 535.234 108.431 538.717 104.949C542.199 101.466 546.922 99.5083 551.847 99.5046C555.888 99.5046 559.763 97.8994 562.62 95.0421C565.477 92.1848 567.083 88.3095 567.083 84.2687V77.1354C567.064 73.1066 565.451 69.2491 562.596 66.4068C559.74 63.5644 555.876 61.9687 551.847 61.9688V61.9688Z" fill="#FFF3A1"/>
<path d="M265.882 342.518C293.902 342.518 293.902 327.503 321.908 327.503C349.915 327.503 349.929 342.518 377.935 342.518C405.942 342.518 405.955 327.503 433.962 327.503C461.968 327.503 461.968 342.518 489.989 342.518C518.009 342.518 517.995 327.503 546.015 327.503C574.036 327.503 574.008 342.518 602.042 342.518C630.076 342.518 630.049 327.503 658.069 327.503C686.089 327.503 686.075 342.518 714.096 342.518C742.116 342.518 742.116 327.503 770.122 327.503C798.129 327.503 798.143 342.518 826.149 342.518C854.156 342.518 854.17 327.503 882.19 327.503C910.21 327.503 910.196 342.518 938.217 342.518C939.338 342.518 940.391 342.518 941.43 342.448C942.751 338.382 943.424 334.133 943.424 329.858V232.819C943.425 228.079 941.556 223.53 938.224 220.159C934.892 216.788 930.366 214.867 925.626 214.813C911.667 214.761 897.968 218.595 886.065 225.888C874.161 233.18 864.522 243.642 858.228 256.102L854.225 264.052C850.683 271.043 845.273 276.916 838.596 281.018C831.918 285.121 824.235 287.293 816.398 287.294H663.762C660.813 287.294 657.894 286.713 655.17 285.585C652.445 284.457 649.97 282.803 647.886 280.718C645.801 278.633 644.147 276.158 643.018 273.434C641.89 270.71 641.309 267.79 641.309 264.842V256.919C641.309 223.109 629.633 197.056 591.031 179.978C574.318 172.818 556.725 167.922 538.716 165.42C498.923 159.714 460.556 163.44 460.556 203.635V259.786C460.552 267.083 457.651 274.08 452.49 279.238C447.329 284.397 440.331 287.294 433.034 287.294H312.393C297.128 287.296 282.292 292.348 270.198 301.663C258.105 310.978 249.433 324.033 245.535 338.792C251.984 341.435 258.914 342.704 265.882 342.518V342.518Z" fill="#FFF3A1"/>
<path d="M551.182 95.4321C547.677 95.4248 544.319 94.0283 541.842 91.5489C539.365 89.0694 537.972 85.7091 537.968 82.2045V79.0603C538.079 75.6281 539.521 72.3736 541.988 69.9849C544.455 67.5963 547.755 66.2607 551.189 66.2607C554.623 66.2607 557.922 67.5963 560.39 69.9849C562.857 72.3736 564.298 75.6281 564.41 79.0603V82.2045C564.406 85.7115 563.011 89.0739 560.531 91.5538C558.051 94.0336 554.689 95.4284 551.182 95.4321V95.4321ZM551.182 68.6168C548.413 68.6205 545.759 69.7219 543.801 71.6797C541.844 73.6374 540.742 76.2917 540.738 79.0603V82.2045C540.687 83.6089 540.92 85.0092 541.422 86.3217C541.924 87.6342 542.686 88.8321 543.661 89.8438C544.637 90.8554 545.806 91.66 547.099 92.2096C548.393 92.7592 549.784 93.0424 551.189 93.0424C552.594 93.0424 553.985 92.7592 555.279 92.2096C556.572 91.66 557.741 90.8554 558.717 89.8438C559.692 88.8321 560.454 87.6342 560.956 86.3217C561.458 85.0092 561.691 83.6089 561.639 82.2045V79.0603C561.636 76.2893 560.532 73.633 558.572 71.6748C556.611 69.7167 553.953 68.6168 551.182 68.6168V68.6168Z" fill="#274D76"/>
<path d="M834.169 369.638C834.063 369.652 833.956 369.652 833.851 369.638C812.063 363.96 799.071 348.031 799.071 327.033V323.363C799.047 316.461 800.651 309.652 803.753 303.487C806.495 298.053 810.557 293.395 815.568 289.941C815.841 289.787 816.162 289.742 816.467 289.814C816.773 289.887 817.039 290.072 817.214 290.332C817.389 290.593 817.459 290.909 817.41 291.219C817.362 291.529 817.199 291.81 816.953 292.004C812.288 295.218 808.507 299.552 805.955 304.609C803.033 310.427 801.52 316.851 801.537 323.363V327.033C801.537 347.117 813.531 361.757 834.46 367.201C834.745 367.287 834.99 367.472 835.152 367.723C835.314 367.973 835.382 368.273 835.344 368.568C835.305 368.864 835.164 369.136 834.944 369.337C834.723 369.538 834.439 369.655 834.142 369.666L834.169 369.638Z" fill="black"/>
<path d="M933.327 275.189H899.074C892.008 275.196 885.234 278.006 880.238 283.002C875.242 287.998 872.432 294.772 872.425 301.838V359.249C872.425 359.58 872.556 359.897 872.79 360.131C873.024 360.365 873.341 360.496 873.671 360.496C874.002 360.496 874.319 360.365 874.553 360.131C874.787 359.897 874.918 359.58 874.918 359.249V301.838C874.929 295.436 877.478 289.299 882.006 284.774C886.534 280.248 892.672 277.703 899.074 277.696H933.327C933.503 277.714 933.68 277.695 933.848 277.641C934.016 277.586 934.171 277.497 934.302 277.379C934.434 277.261 934.539 277.116 934.611 276.955C934.682 276.793 934.72 276.619 934.72 276.442C934.72 276.265 934.682 276.091 934.611 275.929C934.539 275.768 934.434 275.624 934.302 275.505C934.171 275.387 934.016 275.298 933.848 275.243C933.68 275.189 933.503 275.17 933.327 275.189V275.189Z" fill="black"/>
<path d="M607.846 201.363H469.393V204.133H607.846V201.363Z" fill="#274D76"/>
<path d="M624.633 225.921H471.332V228.691H624.633V225.921Z" fill="#274D76"/>
<path d="M646.919 285.909H457.217V288.679H646.919V285.909Z" fill="#274D76"/>
<path d="M541.681 508.687C528.641 508.687 515.894 504.821 505.052 497.576C494.21 490.332 485.759 480.035 480.769 467.988C475.779 455.941 474.473 442.684 477.017 429.895C479.561 417.106 485.841 405.358 495.061 396.138C504.281 386.917 516.029 380.638 528.818 378.094C541.608 375.55 554.864 376.856 566.911 381.846C578.958 386.836 589.255 395.286 596.5 406.128C603.744 416.971 607.611 429.718 607.611 442.757C607.589 460.236 600.636 476.993 588.276 489.353C575.916 501.712 559.16 508.665 541.681 508.687V508.687ZM541.681 379.597C529.189 379.597 516.977 383.302 506.591 390.242C496.204 397.182 488.109 407.046 483.328 418.587C478.548 430.128 477.297 442.827 479.734 455.079C482.171 467.331 488.187 478.585 497.02 487.418C505.853 496.251 517.107 502.267 529.359 504.704C541.611 507.141 554.31 505.89 565.851 501.109C577.392 496.329 587.256 488.234 594.196 477.847C601.136 467.461 604.841 455.249 604.841 442.757C604.822 426.012 598.162 409.958 586.321 398.117C574.48 386.276 558.426 379.616 541.681 379.597Z" fill="white"/>
<path d="M541.68 475.14C559.565 475.14 574.064 460.641 574.064 442.756C574.064 424.872 559.565 410.373 541.68 410.373C523.795 410.373 509.297 424.872 509.297 442.756C509.297 460.641 523.795 475.14 541.68 475.14Z" fill="#274D76"/>
<path d="M594.571 443.819C595.202 439.892 592.529 436.197 588.602 435.566C584.674 434.936 580.979 437.609 580.349 441.536C579.718 445.464 582.391 449.159 586.318 449.789C590.246 450.42 593.941 447.747 594.571 443.819Z" fill="white"/>
<path d="M499.765 443.825C500.395 439.898 497.722 436.203 493.795 435.572C489.867 434.942 486.172 437.614 485.542 441.542C484.912 445.469 487.584 449.164 491.512 449.795C495.439 450.425 499.134 447.753 499.765 443.825Z" fill="white"/>
<path d="M396.011 493.547C385.965 493.547 376.145 490.568 367.793 484.987C359.44 479.406 352.93 471.474 349.086 462.193C345.242 452.912 344.236 442.7 346.196 432.847C348.155 422.995 352.993 413.945 360.096 406.841C367.199 399.738 376.25 394.901 386.102 392.941C395.955 390.981 406.167 391.987 415.448 395.831C424.729 399.675 432.661 406.185 438.242 414.538C443.823 422.891 446.802 432.71 446.802 442.756C446.787 456.222 441.431 469.133 431.909 478.655C422.387 488.177 409.477 493.533 396.011 493.547V493.547ZM396.011 394.735C386.513 394.735 377.229 397.551 369.332 402.828C361.435 408.105 355.28 415.605 351.645 424.379C348.011 433.154 347.06 442.809 348.913 452.124C350.766 461.44 355.339 469.996 362.055 476.712C368.771 483.428 377.327 488.001 386.642 489.854C395.958 491.707 405.613 490.756 414.388 487.122C423.162 483.487 430.662 477.332 435.939 469.435C441.216 461.538 444.032 452.254 444.032 442.756C444.017 430.025 438.953 417.819 429.951 408.816C420.948 399.814 408.742 394.75 396.011 394.735V394.735Z" fill="white"/>
<path d="M413.536 460.287C423.218 450.605 423.218 434.907 413.536 425.225C403.854 415.542 388.155 415.542 378.473 425.225C368.791 434.907 368.791 450.605 378.473 460.287C388.156 469.969 403.854 469.97 413.536 460.287Z" fill="#274D76"/>
<path d="M436.539 442.688C436.539 443.784 436.214 444.855 435.605 445.766C434.996 446.677 434.131 447.387 433.119 447.806C432.106 448.226 430.992 448.335 429.918 448.122C428.843 447.908 427.856 447.38 427.081 446.605C426.306 445.831 425.778 444.843 425.564 443.769C425.351 442.694 425.46 441.58 425.88 440.568C426.299 439.555 427.009 438.69 427.92 438.081C428.831 437.472 429.903 437.147 430.998 437.147C432.468 437.147 433.877 437.731 434.916 438.77C435.955 439.809 436.539 441.218 436.539 442.688Z" fill="white"/>
<path d="M363.974 442.688C363.974 443.784 363.649 444.855 363.04 445.766C362.431 446.677 361.566 447.387 360.554 447.806C359.541 448.226 358.427 448.335 357.353 448.122C356.278 447.908 355.291 447.38 354.516 446.605C353.741 445.831 353.213 444.843 353 443.769C352.786 442.694 352.896 441.58 353.315 440.568C353.734 439.555 354.444 438.69 355.355 438.081C356.266 437.472 357.338 437.147 358.433 437.147C359.903 437.147 361.312 437.731 362.351 438.77C363.39 439.809 363.974 441.218 363.974 442.688Z" fill="white"/>
<path d="M684.317 493.547C674.271 493.547 664.451 490.568 656.098 484.987C647.746 479.406 641.236 471.474 637.392 462.193C633.547 452.912 632.542 442.7 634.501 432.847C636.461 422.995 641.298 413.945 648.402 406.841C655.505 399.738 664.555 394.901 674.408 392.941C684.26 390.981 694.473 391.987 703.753 395.831C713.034 399.675 720.967 406.185 726.548 414.538C732.129 422.891 735.108 432.71 735.108 442.756C735.093 456.222 729.737 469.133 720.215 478.655C710.693 488.177 697.783 493.533 684.317 493.547V493.547ZM684.317 394.735C674.819 394.735 665.534 397.551 657.637 402.828C649.74 408.105 643.585 415.605 639.951 424.379C636.316 433.154 635.365 442.809 637.218 452.124C639.071 461.44 643.645 469.996 650.361 476.712C657.076 483.428 665.633 488.001 674.948 489.854C684.263 491.707 693.919 490.756 702.693 487.122C711.468 483.487 718.968 477.332 724.244 469.435C729.521 461.538 732.338 452.254 732.338 442.756C732.323 430.025 727.259 417.819 718.256 408.816C709.254 399.814 697.048 394.75 684.317 394.735V394.735Z" fill="white"/>
<path d="M701.847 460.281C711.53 450.599 711.53 434.901 701.847 425.219C692.165 415.536 676.467 415.536 666.785 425.219C657.102 434.901 657.102 450.599 666.785 460.281C676.467 469.964 692.165 469.964 701.847 460.281Z" fill="#274D76"/>
<path d="M724.844 442.688C724.844 443.784 724.519 444.855 723.911 445.766C723.302 446.677 722.437 447.387 721.424 447.806C720.412 448.226 719.298 448.335 718.223 448.122C717.148 447.908 716.161 447.38 715.386 446.605C714.612 445.831 714.084 444.843 713.87 443.769C713.656 442.694 713.766 441.58 714.185 440.568C714.605 439.555 715.315 438.69 716.226 438.081C717.137 437.472 718.208 437.147 719.304 437.147C720.774 437.147 722.183 437.731 723.222 438.77C724.261 439.809 724.844 441.218 724.844 442.688Z" fill="white"/>
<path d="M652.279 442.688C652.279 443.784 651.955 444.855 651.346 445.766C650.737 446.677 649.872 447.387 648.859 447.806C647.847 448.226 646.733 448.335 645.658 448.122C644.583 447.908 643.596 447.38 642.821 446.605C642.047 445.831 641.519 444.843 641.305 443.769C641.091 442.694 641.201 441.58 641.62 440.568C642.04 439.555 642.75 438.69 643.661 438.081C644.572 437.472 645.643 437.147 646.739 437.147C648.209 437.147 649.618 437.731 650.657 438.77C651.696 439.809 652.279 441.218 652.279 442.688Z" fill="white"/>
<path d="M329.042 307.019H326.271V503.078H329.042V307.019Z" fill="white"/>
<path d="M765.607 734.747C764.994 734.745 764.383 734.661 763.792 734.498L532.455 670.368C530.684 669.876 529.182 668.7 528.278 667.1C527.374 665.5 527.143 663.607 527.635 661.836C528.127 660.065 529.303 658.563 530.903 657.659C532.503 656.755 534.397 656.524 536.167 657.016L767.477 721.173C769.096 721.62 770.497 722.639 771.421 724.042C772.344 725.445 772.726 727.136 772.496 728.799C772.265 730.463 771.438 731.986 770.168 733.086C768.898 734.185 767.272 734.785 765.593 734.775L765.607 734.747Z" fill="#93B4F6"/>
<path d="M533.398 603.662C526.9 603.662 520.548 605.589 515.145 609.199C509.742 612.809 505.531 617.94 503.044 623.944C500.558 629.947 499.907 636.553 501.175 642.926C502.442 649.299 505.571 655.153 510.166 659.748C514.761 664.343 520.615 667.472 526.988 668.739C533.361 670.007 539.967 669.356 545.971 666.87C551.974 664.383 557.105 660.172 560.715 654.769C564.325 649.366 566.252 643.014 566.252 636.516C566.252 627.803 562.791 619.446 556.629 613.285C550.468 607.123 542.111 603.662 533.398 603.662ZM533.398 651.032C530.527 651.032 527.72 650.181 525.333 648.586C522.946 646.991 521.086 644.724 519.987 642.071C518.888 639.419 518.601 636.5 519.161 633.684C519.721 630.869 521.104 628.282 523.134 626.252C525.164 624.222 527.75 622.84 530.566 622.28C533.382 621.719 536.3 622.007 538.953 623.106C541.605 624.204 543.872 626.065 545.467 628.452C547.062 630.839 547.913 633.645 547.913 636.516C547.899 640.357 546.363 644.034 543.642 646.745C540.922 649.455 537.238 650.977 533.398 650.977V651.032Z" fill="#274D76"/>
<path d="M533.398 600.893C526.352 600.893 519.464 602.982 513.606 606.896C507.748 610.811 503.182 616.375 500.485 622.884C497.789 629.394 497.083 636.556 498.458 643.467C499.833 650.377 503.225 656.725 508.208 661.707C513.19 666.689 519.537 670.082 526.448 671.457C533.358 672.832 540.521 672.126 547.031 669.43C553.54 666.733 559.104 662.167 563.018 656.309C566.933 650.45 569.022 643.563 569.022 636.517C569.011 627.072 565.255 618.017 558.576 611.339C551.898 604.66 542.843 600.904 533.398 600.893V600.893ZM533.398 669.371C526.9 669.371 520.548 667.444 515.145 663.834C509.742 660.224 505.531 655.093 503.044 649.09C500.558 643.086 499.907 636.48 501.175 630.107C502.443 623.734 505.572 617.88 510.166 613.285C514.761 608.691 520.615 605.562 526.988 604.294C533.361 603.026 539.967 603.677 545.971 606.164C551.974 608.65 557.105 612.861 560.715 618.264C564.325 623.667 566.252 630.019 566.252 636.517C566.252 645.23 562.791 653.587 556.629 659.748C550.468 665.91 542.111 669.371 533.398 669.371Z" fill="#74BAAB"/>
<path d="M533.397 622.001C530.526 622.001 527.72 622.852 525.333 624.447C522.945 626.042 521.085 628.309 519.986 630.962C518.888 633.614 518.6 636.533 519.16 639.349C519.72 642.164 521.103 644.751 523.133 646.781C525.163 648.811 527.749 650.193 530.565 650.753C533.381 651.314 536.3 651.026 538.952 649.927C541.604 648.829 543.871 646.968 545.466 644.581C547.061 642.194 547.913 639.388 547.913 636.517C547.913 632.667 546.383 628.975 543.661 626.253C540.939 623.53 537.247 622.001 533.397 622.001V622.001ZM533.397 648.318C531.074 648.318 528.803 647.629 526.872 646.338C524.94 645.048 523.435 643.213 522.546 641.067C521.657 638.921 521.424 636.559 521.877 634.281C522.33 632.002 523.449 629.909 525.092 628.267C526.734 626.624 528.827 625.505 531.106 625.052C533.384 624.599 535.746 624.832 537.892 625.721C540.038 626.61 541.872 628.115 543.163 630.047C544.454 631.978 545.143 634.249 545.143 636.572C545.11 639.667 543.858 642.624 541.66 644.802C539.461 646.98 536.492 648.203 533.397 648.207V648.318Z" fill="#74BAAB"/>
<path d="M769.389 695.743C763.705 695.743 758.148 697.429 753.421 700.587C748.695 703.745 745.011 708.234 742.836 713.485C740.661 718.737 740.092 724.516 741.201 730.091C742.31 735.666 745.047 740.787 749.066 744.806C753.086 748.826 758.207 751.563 763.782 752.672C769.357 753.781 775.136 753.212 780.388 751.036C785.639 748.861 790.128 745.177 793.286 740.451C796.444 735.725 798.13 730.168 798.13 724.484C798.13 716.861 795.101 709.551 789.712 704.161C784.322 698.771 777.012 695.743 769.389 695.743ZM769.389 737.171C766.876 737.171 764.42 736.426 762.331 735.03C760.242 733.633 758.614 731.649 757.653 729.327C756.692 727.006 756.442 724.451 756.933 721.987C757.424 719.523 758.635 717.26 760.413 715.484C762.19 713.708 764.455 712.5 766.919 712.011C769.384 711.522 771.939 711.776 774.259 712.739C776.58 713.703 778.562 715.333 779.956 717.424C781.35 719.514 782.093 721.971 782.09 724.484C782.087 727.85 780.747 731.077 778.365 733.456C775.984 735.835 772.755 737.171 769.389 737.171V737.171Z" fill="#274D76"/>
<path d="M769.389 692.973C763.156 692.973 757.064 694.821 751.882 698.283C746.7 701.746 742.661 706.667 740.277 712.425C737.892 718.183 737.268 724.518 738.483 730.631C739.699 736.743 742.7 742.358 747.107 746.765C751.514 751.172 757.129 754.173 763.241 755.389C769.354 756.604 775.689 755.98 781.447 753.595C787.205 751.211 792.126 747.172 795.589 741.99C799.051 736.808 800.899 730.716 800.899 724.483C800.892 716.128 797.57 708.118 791.662 702.21C785.754 696.302 777.744 692.98 769.389 692.973ZM769.389 753.224C763.704 753.224 758.147 751.538 753.421 748.38C748.695 745.222 745.011 740.734 742.836 735.482C740.661 730.23 740.091 724.451 741.2 718.876C742.309 713.301 745.047 708.18 749.066 704.161C753.085 700.141 758.206 697.404 763.782 696.295C769.357 695.186 775.136 695.755 780.387 697.931C785.639 700.106 790.127 703.79 793.285 708.516C796.444 713.242 798.129 718.799 798.129 724.483C798.129 732.106 795.101 739.416 789.711 744.806C784.321 750.196 777.011 753.224 769.389 753.224Z" fill="#93B4F6"/>
<path d="M769.389 711.782C766.877 711.782 764.421 712.527 762.332 713.923C760.244 715.318 758.616 717.302 757.654 719.623C756.693 721.944 756.441 724.497 756.932 726.961C757.422 729.425 758.631 731.688 760.408 733.465C762.184 735.241 764.447 736.451 766.911 736.941C769.375 737.431 771.929 737.179 774.249 736.218C776.57 735.257 778.554 733.629 779.949 731.54C781.345 729.451 782.09 726.996 782.09 724.483C782.09 721.115 780.752 717.884 778.37 715.502C775.988 713.12 772.757 711.782 769.389 711.782ZM769.389 734.401C767.424 734.401 765.503 733.818 763.87 732.726C762.237 731.634 760.964 730.082 760.212 728.267C759.461 726.451 759.265 724.454 759.65 722.527C760.034 720.6 760.981 718.831 762.371 717.442C763.762 716.054 765.533 715.109 767.46 714.728C769.387 714.346 771.384 714.545 773.199 715.298C775.013 716.052 776.563 717.327 777.653 718.962C778.742 720.597 779.323 722.519 779.32 724.483C779.316 727.115 778.268 729.637 776.406 731.497C774.544 733.356 772.02 734.401 769.389 734.401V734.401Z" fill="#93B4F6"/>
<path d="M802.284 748.183C802.284 748.183 782.616 781.799 779.804 806.564L783.807 808.905C798.378 800.47 823.67 760.69 823.67 760.69L802.284 748.183Z" fill="#274D76"/>
<path d="M825.069 758.293L803.683 745.827L801.287 744.442L799.902 746.839C799.085 748.224 779.915 781.258 777.062 806.314L776.868 808.101L778.419 809.015L780.234 810.082L782.422 811.356L783.807 812.173L785.193 811.356C800.179 802.671 824.958 763.875 826.011 762.227L827.549 759.803L825.069 758.293ZM783.807 808.877L779.805 806.536C782.575 781.77 802.285 748.154 802.285 748.154L823.67 760.62C823.67 760.62 798.392 800.469 783.807 808.877Z" fill="#93B4F6"/>
<path d="M783.655 804.583C782.173 803.715 780.467 803.305 778.752 803.407C777.038 803.508 775.392 804.116 774.022 805.152C772.653 806.189 771.622 807.609 771.06 809.232C770.497 810.855 770.428 812.608 770.862 814.27C771.296 815.932 772.213 817.428 773.497 818.568C774.781 819.709 776.375 820.444 778.076 820.679C779.777 820.914 781.51 820.639 783.056 819.89C784.601 819.14 785.889 817.949 786.758 816.467C787.919 814.479 788.244 812.111 787.662 809.884C787.081 807.656 785.64 805.75 783.655 804.583V804.583Z" fill="#274D76"/>
<path d="M790.345 809.182C789.7 806.734 788.263 804.569 786.259 803.023C784.255 801.477 781.795 800.638 779.264 800.636C777.513 800.633 775.784 801.033 774.211 801.804C772.638 802.576 771.264 803.698 770.193 805.084C769.123 806.471 768.385 808.084 768.036 809.801C767.688 811.518 767.738 813.291 768.184 814.985C768.555 816.45 769.214 817.827 770.12 819.037C771.027 820.246 772.164 821.264 773.465 822.032C774.767 822.801 776.208 823.303 777.705 823.512C779.202 823.721 780.726 823.631 782.188 823.248C783.65 822.865 785.022 822.197 786.225 821.281C787.427 820.365 788.437 819.221 789.195 817.913C789.953 816.606 790.445 815.161 790.643 813.662C790.84 812.164 790.739 810.641 790.345 809.182V809.182ZM786.758 816.467C785.888 817.94 784.603 819.122 783.063 819.864C781.523 820.607 779.797 820.877 778.104 820.64C776.411 820.403 774.825 819.67 773.548 818.534C772.271 817.397 771.359 815.908 770.927 814.253C770.495 812.599 770.563 810.854 771.121 809.238C771.68 807.622 772.704 806.208 774.066 805.173C775.427 804.139 777.065 803.531 778.771 803.426C780.478 803.321 782.177 803.724 783.655 804.583C784.642 805.157 785.505 805.921 786.196 806.83C786.886 807.739 787.391 808.775 787.679 809.88C787.967 810.984 788.034 812.135 787.876 813.266C787.718 814.396 787.338 815.484 786.758 816.467V816.467Z" fill="#93B4F6"/>
<path d="M827.784 753.667C827.784 753.667 850.042 712.114 850.25 695.271L846.247 692.931C826.053 707.529 806.384 741.159 806.384 741.159L827.784 753.667Z" fill="#274D76"/>
<path d="M851.649 692.889L849.322 691.504L847.646 690.521L846.095 689.606L844.627 690.659C824.183 705.438 804.805 738.334 803.988 739.733L802.603 742.115L804.985 743.5L826.385 755.966L828.864 757.351L830.249 754.816C831.177 753.099 852.826 712.474 853.048 695.161V693.554L851.649 692.889ZM827.784 753.667L806.384 741.201C806.384 741.201 826.053 707.571 846.247 692.972L850.25 695.313C850.042 712.114 827.784 753.667 827.784 753.667Z" fill="#93B4F6"/>
<path d="M846.414 697.253C847.897 698.119 849.603 698.526 851.318 698.423C853.032 698.319 854.677 697.709 856.045 696.671C857.413 695.633 858.442 694.212 859.003 692.589C859.563 690.965 859.63 689.212 859.194 687.551C858.758 685.89 857.84 684.395 856.555 683.256C855.27 682.116 853.676 681.384 851.975 681.15C850.273 680.916 848.541 681.193 846.996 681.944C845.452 682.695 844.165 683.887 843.298 685.369C842.138 687.359 841.815 689.727 842.399 691.955C842.983 694.183 844.427 696.088 846.414 697.253Z" fill="#274D76"/>
<path d="M856.567 679.87C854.607 678.733 852.355 678.203 850.095 678.346C847.834 678.489 845.667 679.3 843.867 680.674C842.066 682.049 840.714 683.927 839.981 686.07C839.248 688.213 839.166 690.525 839.747 692.715C840.328 694.904 841.545 696.872 843.244 698.37C844.943 699.868 847.048 700.829 849.292 701.13C851.537 701.432 853.821 701.062 855.856 700.066C857.89 699.07 859.583 697.493 860.722 695.535C862.242 692.905 862.658 689.78 861.88 686.844C861.101 683.908 859.19 681.4 856.567 679.87ZM858.284 694.15C857.417 695.637 856.129 696.834 854.582 697.588C853.035 698.343 851.298 698.621 849.593 698.388C847.887 698.156 846.289 697.422 845.001 696.281C843.712 695.139 842.792 693.641 842.355 691.976C841.918 690.311 841.986 688.554 842.548 686.927C843.111 685.301 844.143 683.877 845.515 682.838C846.887 681.798 848.536 681.189 850.255 681.087C851.973 680.985 853.683 681.395 855.168 682.266C857.157 683.428 858.604 685.332 859.191 687.56C859.777 689.788 859.456 692.158 858.298 694.15H858.284Z" fill="#93B4F6"/>
<path d="M813.628 522.164C813.628 495.293 820.72 473.52 829.46 473.52H795.483C786.744 473.52 779.652 495.293 779.652 522.164C779.652 549.034 786.744 570.794 795.483 570.794H829.46C820.747 570.794 813.628 549.021 813.628 522.164Z" fill="#74BAAB"/>
<path d="M822.216 511.665C823.601 511.665 828.559 513.396 831.108 519.892C835.914 516.222 836.648 504.047 836.648 502.121C836.482 491.553 833.075 483.686 829.64 483.852C825.581 484.032 821.62 494.684 822.146 509.559C822.146 510.321 822.188 511.083 822.216 511.665ZM822.354 515.529C819.916 522.898 821.066 552.234 825.817 559.062C827.202 560.96 829.183 561.403 830.263 559.284C833.033 553.827 834.114 540.571 832.548 528.881C831.108 518.147 824.072 515.446 822.354 515.529V515.529ZM835.36 516.762C834.944 518.589 834.105 520.292 832.909 521.734C837.784 537.178 834.557 545.946 834.557 545.946C834.557 545.946 840.596 544.976 840.665 532.926C840.72 524.2 838.809 518.562 835.36 516.762V516.762Z" fill="#93B4F6"/>
<path d="M779.527 684.316C778.791 684.175 778.035 684.185 777.303 684.346C776.571 684.506 775.88 684.813 775.27 685.248C774.66 685.683 774.145 686.237 773.755 686.877C773.366 687.516 773.11 688.228 773.003 688.97L772.352 693.527C772.324 693.762 772.21 693.979 772.033 694.136C771.856 694.294 771.627 694.381 771.39 694.381C771.153 694.381 770.924 694.294 770.746 694.136C770.569 693.979 770.455 693.762 770.427 693.527L769.721 688.901C769.595 688.081 769.286 687.301 768.818 686.617C768.35 685.932 767.734 685.362 767.017 684.947C766.299 684.533 765.497 684.284 764.671 684.22C763.844 684.157 763.014 684.279 762.241 684.579C761.049 685.063 760.058 685.938 759.431 687.061C758.803 688.185 758.578 689.488 758.792 690.757L759.333 694.233C759.455 695.003 759.314 695.792 758.932 696.472C758.55 697.152 757.95 697.683 757.229 697.979C756.508 698.275 755.708 698.32 754.959 698.105C754.209 697.89 753.554 697.429 753.1 696.796L750.579 693.305C749.837 692.246 748.753 691.475 747.509 691.122C746.265 690.769 744.938 690.855 743.75 691.366C742.996 691.7 742.326 692.199 741.79 692.825C741.253 693.452 740.863 694.19 740.648 694.987C740.433 695.783 740.398 696.617 740.547 697.429C740.695 698.24 741.023 699.008 741.507 699.677L759.111 723.999C759.625 724.712 760.302 725.292 761.084 725.692C761.867 726.091 762.734 726.299 763.612 726.298C764.734 726.298 774.555 721.007 774.804 721.007C777.574 721.007 779.638 721.132 780.026 718.361L783.932 690.826C784.158 689.385 783.829 687.911 783.012 686.703C782.194 685.495 780.949 684.642 779.527 684.316V684.316ZM760.995 727.78C758.598 729.678 760.26 729.013 758.488 731.007C758.488 731.09 766.798 744.276 758.266 755.468C755.952 758.365 753.137 760.823 749.956 762.726C744.928 766.105 739.221 769.928 735.481 780.496C727.06 804.32 744.581 824.819 745.329 825.761C745.784 826.377 746.362 826.893 747.027 827.274C747.691 827.656 748.428 827.895 749.189 827.978C749.951 828.061 750.722 827.984 751.452 827.754C752.183 827.523 752.858 827.144 753.434 826.64C754.011 826.135 754.477 825.516 754.802 824.823C755.128 824.129 755.305 823.375 755.325 822.609C755.344 821.844 755.204 821.082 754.914 820.373C754.624 819.664 754.19 819.022 753.64 818.489C753.501 818.337 739.581 802.007 745.869 784.195C748.39 777.089 751.618 774.928 756.078 771.937C760.286 769.384 764.006 766.101 767.061 762.241C777.99 747.864 772.934 734.041 768.751 728.75C767.849 727.595 766.527 726.845 765.073 726.664C763.619 726.482 762.153 726.883 760.995 727.78V727.78Z" fill="#93B4F6"/>
<path d="M537.248 629.646C535.72 629.448 534.17 629.765 532.843 630.547C532.401 630.302 531.937 630.098 531.458 629.937C529.718 629.377 527.828 629.527 526.199 630.355C524.569 631.182 523.333 632.621 522.76 634.356L511.845 667.21C511.267 668.953 511.404 670.854 512.228 672.496C513.051 674.138 514.493 675.385 516.236 675.964C516.94 676.204 517.68 676.326 518.424 676.324C519.62 676.32 520.795 676.007 521.833 675.415C522.872 674.823 523.74 673.971 524.352 672.944L523.868 676.407C523.745 677.308 523.801 678.225 524.032 679.105C524.263 679.984 524.666 680.81 525.216 681.534C525.767 682.258 526.455 682.867 527.24 683.325C528.026 683.783 528.895 684.082 529.796 684.205C530.11 684.225 530.424 684.225 530.738 684.205C532.422 684.221 534.055 683.622 535.33 682.52C536.605 681.419 537.434 679.89 537.663 678.221L543.204 637.431C543.324 636.528 543.266 635.611 543.032 634.731C542.798 633.852 542.393 633.027 541.839 632.304C541.286 631.581 540.596 630.974 539.808 630.518C539.02 630.062 538.15 629.766 537.248 629.646Z" fill="#93B4F6"/>
<path d="M1000.02 841.565C1013.44 766.23 954.187 703.139 947.732 701.214L941.43 707.696C946.97 715.009 967.317 755.385 962.456 796.106C962.366 796.856 962.115 797.577 961.72 798.22C961.325 798.863 960.795 799.412 960.167 799.831C959.539 800.25 958.828 800.527 958.083 800.645C957.337 800.762 956.575 800.716 955.849 800.511C905.058 786.286 834.155 747.032 834.155 747.032L831.634 750.98L782.187 723.001C781.256 722.476 780.231 722.138 779.171 722.009C778.11 721.879 777.034 721.96 776.005 722.246C774.975 722.532 774.012 723.018 773.17 723.677C772.328 724.335 771.625 725.153 771.099 726.083C770.573 727.013 770.236 728.038 770.106 729.099C769.977 730.16 770.057 731.236 770.344 732.265C770.63 733.295 771.116 734.258 771.774 735.1C772.433 735.941 773.251 736.645 774.181 737.171L823.725 765.205L821.772 768.114C821.772 768.114 898.395 810.553 927.039 839.612C927.756 840.343 928.294 841.229 928.611 842.203C928.928 843.176 929.015 844.209 928.866 845.222C928.717 846.235 928.336 847.199 927.752 848.04C927.169 848.881 926.398 849.575 925.502 850.069C891.983 868.629 843.38 879.835 834.778 877.909L831.634 886.441C836.288 891.22 924.643 904.946 986.764 863.061C990.454 860.548 994.77 859.109 999.23 858.906C1000.78 858.906 1002.47 856.011 1001.79 854.571C999.867 850.524 999.247 845.979 1000.02 841.565V841.565Z" fill="#274D76"/>
<path d="M1002.75 842.118C1009.96 801.632 996.404 765.648 983.759 742.6C970.143 717.765 953.204 700.022 948.522 698.623L946.915 698.152L945.738 699.357L939.45 705.84L937.788 707.557L939.173 709.455C945.046 717.142 964.326 756.645 959.658 795.856C959.584 796.45 959.295 796.996 958.846 797.391C958.397 797.787 957.819 798.005 957.22 798.003C956.992 798.003 956.764 797.975 956.542 797.92C906.679 783.945 836.136 745.065 835.43 744.677L833.172 743.431L831.787 745.592L830.637 747.351L783.447 720.66C781.566 719.589 779.408 719.103 777.248 719.264C775.089 719.424 773.027 720.224 771.324 721.561C769.621 722.899 768.355 724.713 767.687 726.772C767.019 728.832 766.98 731.044 767.574 733.126C767.951 734.509 768.599 735.803 769.482 736.932C770.364 738.062 771.462 739.005 772.713 739.705L819.667 766.257L819.377 766.686L817.701 769.193L820.332 770.662C820.526 770.759 839.724 781.41 862.12 795.455C891.678 813.973 913.369 829.957 924.934 841.689C925.352 842.108 925.667 842.62 925.852 843.183C926.037 843.746 926.088 844.344 926.001 844.93C925.903 845.51 925.676 846.061 925.335 846.541C924.995 847.021 924.55 847.417 924.034 847.7C893.465 864.626 849.849 875.402 837.23 875.402C836.571 875.421 835.912 875.37 835.264 875.25L832.881 874.723L832.05 877.009L828.948 885.499L828.352 887.134L829.571 888.38C833.117 892.023 855.569 895.223 877.606 895.223C902.371 895.223 949.63 891.344 988.163 865.346C991.41 863.115 995.212 861.829 999.147 861.634C1000.06 861.534 1000.93 861.213 1001.69 860.698C1002.45 860.184 1003.07 859.493 1003.5 858.684C1004.03 857.912 1004.36 857.023 1004.46 856.093C1004.57 855.164 1004.45 854.222 1004.11 853.351C1002.51 849.834 1002.04 845.913 1002.75 842.118V842.118ZM1001.64 854.584C1002.32 855.969 1000.63 858.85 999.078 858.919C994.618 859.122 990.302 860.561 986.612 863.075C952.096 886.372 909.463 892.466 877.606 892.466C852.175 892.466 833.615 888.574 831.551 886.455L834.654 877.964C835.502 878.133 836.366 878.208 837.23 878.186C850.43 878.186 894.365 867.299 925.377 850.124C926.274 849.63 927.044 848.936 927.628 848.095C928.212 847.254 928.593 846.29 928.742 845.277C928.891 844.264 928.803 843.231 928.486 842.258C928.169 841.284 927.631 840.397 926.915 839.667C898.313 810.58 821.648 768.168 821.648 768.168L823.601 765.26L774.057 737.226C772.178 736.164 770.797 734.399 770.219 732.32C769.641 730.241 769.913 728.017 770.975 726.138C772.036 724.259 773.801 722.879 775.88 722.301C777.96 721.723 780.183 721.995 782.062 723.056L831.51 751.035L834.086 747.087C834.086 747.087 905.044 786.285 955.849 800.566C956.3 800.693 956.766 800.759 957.234 800.76C958.511 800.762 959.745 800.294 960.7 799.446C961.655 798.599 962.265 797.429 962.415 796.161C967.276 755.44 946.985 715.064 941.389 707.751L947.691 701.269C954.146 703.194 1013.4 766.285 999.978 841.62C999.201 845.978 999.781 850.469 1001.64 854.487V854.584Z" fill="#93B4F6"/>
<path d="M806.674 732.36L794.634 752.949C793.313 755.207 794.073 758.109 796.331 759.429L816.92 771.47C819.178 772.791 822.08 772.031 823.401 769.772L835.441 749.184C836.762 746.925 836.002 744.024 833.744 742.703L813.155 730.662C810.897 729.342 807.995 730.102 806.674 732.36Z" fill="#274D76"/>
<path d="M838.56 744.803C838.058 742.877 836.813 741.228 835.098 740.219L814.501 728.182C813.351 727.508 812.04 727.154 810.706 727.157C809.397 727.161 808.11 727.504 806.974 728.155C805.837 728.806 804.89 729.741 804.224 730.869L792.188 751.466C791.689 752.317 791.362 753.258 791.227 754.235C791.092 755.212 791.151 756.207 791.401 757.161C791.65 758.116 792.086 759.012 792.682 759.798C793.278 760.584 794.023 761.245 794.875 761.743L815.471 773.779C817.188 774.783 819.234 775.063 821.159 774.559C823.083 774.055 824.729 772.808 825.734 771.092L837.785 750.496C838.285 749.646 838.611 748.705 838.744 747.728C838.877 746.75 838.815 745.756 838.56 744.803V744.803ZM835.388 749.097L823.324 769.693C822.898 770.414 822.29 771.01 821.561 771.421C820.831 771.832 820.006 772.043 819.169 772.034C818.331 772.034 817.508 771.809 816.787 771.383L796.19 759.347C795.653 759.033 795.182 758.617 794.806 758.121C794.429 757.625 794.155 757.059 793.998 756.457C793.84 755.855 793.804 755.227 793.89 754.611C793.977 753.994 794.184 753.401 794.501 752.864L806.537 732.268C807.173 731.185 808.212 730.398 809.428 730.081C810.644 729.764 811.936 729.943 813.019 730.578L833.616 742.615C834.16 742.921 834.639 743.333 835.024 743.825C835.409 744.318 835.692 744.881 835.858 745.484C836.024 746.087 836.07 746.716 835.991 747.336C835.913 747.956 835.713 748.555 835.402 749.097H835.388Z" fill="#93B4F6"/>
<path d="M602.499 342.904C588.136 342.904 580.864 339.012 573.828 335.244C566.792 331.477 560.13 327.889 546.459 327.889C532.788 327.889 526.153 331.463 519.103 335.244C512.053 339.025 504.795 342.904 490.432 342.904C476.069 342.904 468.811 339.012 461.775 335.244C454.738 331.477 448.062 327.889 434.405 327.889C420.748 327.889 414.1 331.463 407.05 335.244C400 339.025 392.742 342.904 378.378 342.904C364.015 342.904 356.743 339.012 349.707 335.244C342.671 331.477 336.009 327.889 322.352 327.889C308.695 327.889 301.936 331.407 294.927 335.244C287.918 339.081 280.605 342.904 266.256 342.904C251.906 342.904 244.621 339.012 237.584 335.244C230.548 331.477 223.886 327.889 210.229 327.889C196.572 327.889 189.91 331.407 182.818 335.244C175.726 339.081 168.496 342.904 154.147 342.904C139.797 342.904 132.512 339.012 125.475 335.244C118.439 331.477 111.777 327.889 98.12 327.889C84.463 327.889 77.8007 331.463 70.7645 335.244C63.7283 339.025 56.4428 342.904 42.0933 342.904C27.7438 342.904 20.4582 339.012 13.4219 335.244C6.38571 331.477 -0.276563 327.889 -13.9335 327.889C-27.5905 327.889 -34.2389 331.463 -41.289 335.244C-48.3391 339.025 -55.5969 342.904 -69.9603 342.904C-84.3237 342.904 -91.5815 339.012 -98.6178 335.244C-105.654 331.477 -112.316 327.889 -125.973 327.889C-139.63 327.889 -146.292 331.463 -153.329 335.244C-160.365 339.025 -167.651 342.904 -182 342.904V340.133C-168.343 340.133 -161.681 336.574 -154.645 332.793C-147.608 329.011 -140.337 325.119 -125.973 325.119C-111.61 325.119 -104.352 329.025 -97.3158 332.793C-90.2795 336.56 -83.6173 340.133 -69.9603 340.133C-56.3033 340.133 -49.6411 336.574 -42.591 332.793C-35.5409 329.011 -28.283 325.119 -13.9335 325.119C0.415981 325.119 7.70156 329.025 14.7378 332.793C21.774 336.56 28.4363 340.133 42.0933 340.133C55.7502 340.133 62.4125 336.574 69.4487 332.793C76.485 329.011 83.7705 325.119 98.12 325.119C112.469 325.119 119.755 329.025 126.791 332.793C133.828 336.56 140.49 340.133 154.147 340.133C167.804 340.133 174.452 336.574 181.502 332.793C188.552 329.011 195.81 325.119 210.174 325.119C224.537 325.119 231.795 329.025 238.845 332.793C245.895 336.56 252.543 340.133 266.2 340.133C279.857 340.133 286.561 336.574 293.625 332.793C300.689 329.011 307.933 325.119 322.296 325.119C336.66 325.119 343.931 329.025 350.968 332.793C358.004 336.56 364.666 340.133 378.323 340.133C391.98 340.133 398.642 336.574 405.679 332.793C412.715 329.011 420 325.119 434.35 325.119C448.699 325.119 455.985 329.025 463.021 332.793C470.057 336.56 476.72 340.133 490.377 340.133C504.034 340.133 510.696 336.574 517.746 332.793C524.796 329.011 532.054 325.119 546.403 325.119C560.753 325.119 568.038 329.025 575.075 332.793C582.111 336.56 588.773 340.133 602.444 340.133C616.115 340.133 622.749 336.574 629.799 332.793C636.849 329.011 644.107 325.119 658.471 325.119V327.889C644.814 327.889 638.152 331.463 631.115 335.244C624.079 339.025 616.78 342.904 602.499 342.904Z" fill="white"/>
<path d="M657.185 325C671.548 325 678.82 328.892 685.856 332.659C692.892 336.427 699.554 340.014 713.225 340.014C726.896 340.014 733.531 336.44 740.581 332.659C747.631 328.878 754.889 325 769.252 325C783.615 325 790.873 328.892 797.909 332.659C804.946 336.427 811.622 340.014 825.279 340.014C838.936 340.014 845.584 336.44 852.634 332.659C859.684 328.878 866.942 325 881.306 325C895.669 325 902.941 328.892 909.977 332.659C917.013 336.427 923.675 340.014 937.332 340.014C950.989 340.014 957.749 336.496 964.757 332.659C971.766 328.822 979.079 325 993.428 325C1007.78 325 1015.06 328.892 1022.1 332.659C1029.14 336.427 1035.8 340.014 1049.46 340.014C1063.11 340.014 1069.77 336.496 1076.87 332.659C1083.96 328.822 1091.19 325 1105.54 325C1119.89 325 1127.17 328.892 1134.21 332.659C1141.24 336.427 1147.91 340.014 1161.56 340.014C1175.22 340.014 1181.88 336.44 1188.92 332.659C1195.96 328.878 1203.24 325 1217.59 325C1231.94 325 1239.23 328.892 1246.26 332.659C1253.3 336.427 1259.96 340.014 1273.62 340.014C1287.27 340.014 1293.92 336.44 1300.97 332.659C1308.02 328.878 1315.28 325 1329.64 325C1344.01 325 1351.27 328.892 1358.3 332.659C1365.34 336.427 1372 340.014 1385.66 340.014C1399.31 340.014 1405.98 336.44 1413.01 332.659C1420.05 328.878 1427.33 325 1441.68 325L1441.68 327.77C1428.03 327.77 1421.36 331.329 1414.33 335.111C1407.29 338.892 1400.02 342.784 1385.66 342.784C1371.29 342.784 1364.04 338.878 1357 335.111C1349.96 331.343 1343.3 327.77 1329.64 327.77C1315.99 327.77 1309.33 331.329 1302.28 335.111C1295.22 338.892 1287.97 342.784 1273.62 342.784C1259.27 342.784 1251.98 338.878 1244.95 335.111C1237.91 331.343 1231.25 327.77 1217.59 327.77C1203.93 327.77 1197.27 331.329 1190.24 335.111C1183.2 338.892 1175.91 342.784 1161.56 342.784C1147.21 342.784 1139.93 338.878 1132.89 335.111C1125.86 331.343 1119.19 327.77 1105.54 327.77C1091.88 327.77 1085.23 331.329 1078.18 335.111C1071.13 338.892 1063.87 342.784 1049.51 342.784C1035.15 342.784 1027.89 338.878 1020.84 335.111C1013.79 331.343 1007.14 327.77 993.484 327.77C979.827 327.77 973.123 331.329 966.059 335.111C958.995 338.892 951.751 342.784 937.388 342.784C923.024 342.784 915.753 338.878 908.716 335.111C901.68 331.343 895.018 327.77 881.361 327.77C867.704 327.77 861.042 331.329 854.006 335.111C846.969 338.892 839.684 342.784 825.334 342.784C810.985 342.784 803.699 338.878 796.663 335.111C789.627 331.343 782.964 327.77 769.307 327.77C755.65 327.77 748.988 331.329 741.938 335.111C734.888 338.892 727.63 342.784 713.281 342.784C698.931 342.784 691.646 338.878 684.609 335.111C677.573 331.343 670.911 327.77 657.24 327.77C643.569 327.77 636.935 331.329 629.885 335.111C622.835 338.892 615.577 342.784 601.213 342.784L601.213 340.014C614.87 340.014 621.533 336.44 628.569 332.659C635.605 328.878 642.904 325 657.185 325Z" fill="white"/>
<path d="M829.488 473.52C820.748 473.52 813.656 495.293 813.656 522.164C813.656 549.034 820.748 570.794 829.488 570.794C838.228 570.794 845.319 549.021 845.319 522.164C845.319 495.307 838.228 473.52 829.488 473.52ZM829.488 568.024C824.03 568.024 816.426 550.572 816.426 522.164C816.426 493.756 824.03 476.29 829.488 476.29C834.945 476.29 842.549 493.742 842.549 522.164C842.549 550.586 834.945 568.024 829.488 568.024Z" fill="white"/>
<path d="M525.835 668.249C525.757 668.263 525.677 668.263 525.599 668.249C525.438 668.219 525.285 668.158 525.148 668.069C525.01 667.979 524.892 667.864 524.8 667.729C524.707 667.594 524.642 667.442 524.608 667.282C524.574 667.121 524.572 666.956 524.602 666.795L530.655 635.271C530.686 635.11 530.748 634.956 530.838 634.819C530.929 634.683 531.045 634.565 531.181 634.473C531.316 634.381 531.469 634.316 531.629 634.283C531.79 634.25 531.955 634.249 532.116 634.28C532.277 634.311 532.431 634.373 532.567 634.464C532.704 634.554 532.822 634.67 532.914 634.806C533.006 634.941 533.07 635.094 533.103 635.254C533.137 635.415 533.138 635.58 533.107 635.741L527.068 667.266C527.002 667.545 526.845 667.793 526.622 667.971C526.398 668.15 526.121 668.248 525.835 668.249V668.249Z" fill="black"/>
<path d="M771.244 714.054C770.914 714.054 770.596 713.923 770.363 713.689C770.129 713.455 769.998 713.138 769.998 712.807V698.749C769.979 698.573 769.998 698.396 770.052 698.228C770.107 698.06 770.196 697.905 770.314 697.774C770.433 697.642 770.577 697.537 770.738 697.465C770.9 697.394 771.075 697.356 771.251 697.356C771.428 697.356 771.602 697.394 771.764 697.465C771.925 697.537 772.07 697.642 772.188 697.774C772.306 697.905 772.395 698.06 772.45 698.228C772.505 698.396 772.523 698.573 772.505 698.749V712.807C772.505 712.972 772.472 713.136 772.409 713.288C772.345 713.44 772.252 713.578 772.135 713.694C772.017 713.81 771.878 713.901 771.725 713.963C771.573 714.025 771.409 714.056 771.244 714.054V714.054Z" fill="black"/>
<path d="M761.411 712.101C761.178 712.102 760.949 712.037 760.751 711.915C760.552 711.792 760.392 711.617 760.289 711.408L755.565 701.712C755.493 701.565 755.45 701.405 755.439 701.241C755.428 701.077 755.45 700.912 755.502 700.757C755.555 700.601 755.638 700.458 755.746 700.334C755.854 700.21 755.986 700.109 756.133 700.037C756.281 699.964 756.441 699.921 756.605 699.91C756.769 699.899 756.933 699.921 757.089 699.973C757.245 700.026 757.388 700.109 757.512 700.217C757.635 700.326 757.736 700.457 757.809 700.604L762.532 710.3C762.606 710.447 762.649 710.607 762.661 710.772C762.672 710.936 762.65 711.1 762.598 711.256C762.545 711.412 762.461 711.556 762.353 711.679C762.244 711.803 762.112 711.904 761.964 711.976C761.79 712.055 761.602 712.098 761.411 712.101Z" fill="black"/>
<path d="M531.292 165.864C520.555 164.466 509.691 164.336 498.923 165.476L498.577 162.706C509.565 161.545 520.652 161.675 531.611 163.094L531.292 165.864Z" fill="#274D76"/>
<path d="M891.194 253.115C891.194 253.115 890.691 253.115 889.685 253.115L888.63 257.27C888.5 257.757 888.17 258 887.64 258H884.815C884.545 258 884.35 257.903 884.231 257.708C884.112 257.502 884.085 257.259 884.15 256.977L885.108 253.115H878.664C877.982 253.115 877.495 252.936 877.203 252.579C876.9 252.222 876.792 251.789 876.879 251.28C876.954 250.772 877.171 250.252 877.528 249.722L886.909 235.829C886.996 235.72 887.061 235.645 887.104 235.601C887.158 235.547 887.25 235.499 887.38 235.455C887.521 235.412 887.694 235.39 887.899 235.39C887.899 235.39 888.987 235.39 891.162 235.39C891.53 235.39 891.746 235.52 891.811 235.78C891.876 236.029 891.789 236.31 891.551 236.624L882.494 249.479H886.033L886.974 245.729C887.104 245.243 887.434 244.999 887.964 244.999H890.788C891.059 244.999 891.254 245.102 891.373 245.307C891.492 245.513 891.519 245.757 891.454 246.038L890.594 249.463H892.217C892.877 249.463 893.131 249.793 892.98 250.453L892.33 252.157C892.136 252.795 891.757 253.115 891.194 253.115ZM904.402 254.007C905.008 254.17 905.668 253.693 906.382 252.579C907.096 251.454 907.767 249.679 908.395 247.255C908.73 245.892 908.963 244.658 909.093 243.555C909.233 242.44 909.244 241.52 909.125 240.795C909.017 240.06 908.774 239.632 908.395 239.513C907.659 239.307 906.95 239.773 906.269 240.909C905.587 242.034 904.932 243.787 904.305 246.168C903.753 248.213 903.482 249.998 903.493 251.524C903.515 253.05 903.818 253.877 904.402 254.007ZM899.711 245.161C900.263 242.976 901.026 241.066 902 239.432C902.974 237.798 904.142 236.575 905.506 235.764C906.88 234.941 908.319 234.72 909.823 235.098C911.782 235.596 913.004 236.959 913.491 239.188C913.989 241.407 913.719 244.485 912.68 248.424C912.409 249.441 912.106 250.393 911.771 251.28C911.435 252.168 911.046 253.017 910.602 253.829C910.159 254.64 909.677 255.344 909.158 255.939C908.649 256.523 908.081 257.026 907.454 257.448C906.837 257.859 906.177 258.114 905.473 258.211C904.77 258.308 904.013 258.271 903.201 258.097C902.162 257.838 901.307 257.313 900.637 256.523C899.966 255.733 899.5 254.759 899.241 253.601C898.992 252.444 898.905 251.151 898.981 249.722C899.068 248.294 899.311 246.774 899.711 245.161ZM932.949 253.115C932.949 253.115 932.445 253.115 931.439 253.115L930.384 257.27C930.254 257.757 929.924 258 929.394 258H926.57C926.299 258 926.105 257.903 925.985 257.708C925.866 257.502 925.839 257.259 925.904 256.977L926.862 253.115H920.418C919.737 253.115 919.25 252.936 918.958 252.579C918.655 252.222 918.546 251.789 918.633 251.28C918.709 250.772 918.925 250.252 919.282 249.722L928.664 235.829C928.75 235.72 928.815 235.645 928.858 235.601C928.912 235.547 929.004 235.499 929.134 235.455C929.275 235.412 929.448 235.39 929.654 235.39C929.654 235.39 930.741 235.39 932.916 235.39C933.284 235.39 933.5 235.52 933.565 235.78C933.63 236.029 933.544 236.31 933.306 236.624L924.249 249.479H927.787L928.729 245.729C928.858 245.243 929.188 244.999 929.719 244.999H932.543C932.813 244.999 933.008 245.102 933.127 245.307C933.246 245.513 933.273 245.757 933.208 246.038L932.348 249.463H933.971C934.631 249.463 934.885 249.793 934.734 250.453L934.085 252.157C933.89 252.795 933.511 253.115 932.949 253.115Z" fill="#EC8C92"/>
</svg>
