<svg width="347" height="322" viewBox="0 0 347 322" fill="none" xmlns="http://www.w3.org/2000/svg">
<path d="M288.6 144.436C287.149 143.506 285.528 142.87 283.831 142.567C282.134 142.263 280.394 142.296 278.71 142.666C277.026 143.035 275.432 143.732 274.018 144.718C272.604 145.704 271.398 146.959 270.469 148.411L263.211 159.852C262.031 161.685 260.261 163.061 258.193 163.751C256.125 164.441 253.884 164.404 251.839 163.647L249.374 162.719H249.263C246.092 161.543 243.421 159.314 241.697 156.405C239.972 153.495 239.299 150.082 239.789 146.736L240.842 139.505C241.14 137.614 240.755 135.679 239.755 134.047C238.754 132.414 237.205 131.192 235.385 130.599C234.3 130.268 233.156 130.175 232.032 130.328C230.908 130.48 229.83 130.873 228.872 131.481C227.914 132.089 227.099 132.897 226.483 133.849C225.867 134.801 225.463 135.876 225.301 136.998L224.207 144.478C222.613 154.771 217.91 164.33 210.73 171.875C209.686 172.994 208.715 174.178 207.821 175.421V175.421C206.982 176.591 205.788 177.461 204.416 177.899C203.044 178.338 201.567 178.323 200.204 177.857C198.841 177.391 197.664 176.498 196.848 175.311C196.032 174.123 195.621 172.705 195.674 171.265L195.979 160.766C196.036 159.316 196.414 157.897 197.087 156.611L210.051 132.081C212.78 126.931 214.207 121.192 214.207 115.363V85.2515C214.207 84.7668 214.207 84.2958 214.207 83.8665C213.947 78.8136 214.988 73.7786 217.232 69.2435C219.475 64.7084 222.845 60.8251 227.019 57.9653L235.883 51.9956C237.489 50.9462 238.665 49.3561 239.199 47.5138C239.733 45.6714 239.588 43.6988 238.792 41.9537C238.307 40.9307 237.607 40.0246 236.74 39.2973C235.872 38.5701 234.858 38.0389 233.766 37.7403C232.674 37.4417 231.531 37.3826 230.414 37.5672C229.297 37.7517 228.234 38.1755 227.296 38.8095L210.024 50.4304C208.959 51.1356 207.765 51.6235 206.511 51.8659C205.257 52.1084 203.967 52.1007 202.716 51.8433C201.465 51.5858 200.278 51.0838 199.221 50.3659C198.165 49.6481 197.261 48.7286 196.561 47.6603C196.561 47.6603 183.499 34.0725 179.649 29.1139C174.912 23.0057 169.039 17.7285 162.903 22.7979C157.709 27.0779 161.809 36.3441 165.285 42.1061C170.909 51.4 186.422 80.0575 186.422 80.0575C187.438 81.6099 187.982 83.4238 187.987 85.2792V115.294C187.985 116.849 187.604 118.379 186.879 119.754L173.901 144.298C173.638 144.826 173.214 145.257 172.689 145.528C172.164 145.798 171.567 145.894 170.984 145.801C170.402 145.708 169.864 145.432 169.449 145.012C169.034 144.592 168.764 144.051 168.679 143.467L164.247 116.18C163.766 113.203 162.91 110.299 161.698 107.538C160.378 104.58 160.087 101.265 160.87 98.1221C161.653 94.9792 163.466 92.1891 166.02 90.1963L167.695 88.8943C168.648 88.1553 169.419 87.2083 169.95 86.1256C170.48 85.0429 170.756 83.8532 170.757 82.6476V63.8381C170.785 61.7991 170.042 59.8248 168.675 58.3115C167.308 56.7982 165.419 55.8581 163.388 55.6799C162.32 55.6216 161.251 55.7814 160.246 56.1496C159.242 56.5177 158.323 57.0865 157.545 57.8213C156.768 58.556 156.148 59.4414 155.724 60.4235C155.299 61.4055 155.079 62.4636 155.077 63.5334V78.7693C154.546 79.1825 153.927 79.4692 153.269 79.6077C152.61 79.7462 151.928 79.733 151.275 79.5687C150.623 79.4045 150.016 79.0937 149.501 78.66C148.986 78.2263 148.577 77.6811 148.304 77.0656L144.842 69.2261C144.401 68.25 144.134 67.2049 144.052 66.1374L142.307 44.2391C141.611 35.2798 137.548 26.9164 130.935 20.8311C130.935 20.8311 117.084 7.71439 112.209 3.54528C101.959 -5.33312 89.7012 4.93035 97.4161 16.5928C101.322 22.4794 113.137 40.1393 113.137 40.1393C114.892 41.77 115.974 43.9982 116.17 46.386L117.915 68.2565C118.237 72.2717 119.229 76.2045 120.852 79.8913V79.8913C120.852 80.2434 120.77 80.5906 120.614 80.9061C120.458 81.2215 120.23 81.4966 119.95 81.7098C119.67 81.923 119.344 82.0685 118.999 82.1351C118.653 82.2017 118.296 82.1874 117.957 82.0935L110.284 79.9466C109.25 79.6561 108.167 79.5807 107.103 79.7251C106.039 79.8696 105.015 80.2308 104.096 80.7864C103.177 81.3421 102.382 82.0803 101.759 82.9555C101.137 83.8307 100.7 84.8243 100.477 85.8748C100.097 87.8795 100.49 89.9536 101.577 91.6803C102.664 93.407 104.364 94.6583 106.336 95.1826L116.96 98.1467C121.231 99.3477 125.184 101.478 128.537 104.385C131.889 107.292 134.557 110.903 136.351 114.962L137.736 118.064C138.063 118.808 138.295 119.59 138.429 120.391L138.609 121.527C138.735 122.286 138.62 123.066 138.281 123.757C137.941 124.448 137.393 125.015 136.715 125.379C136.036 125.742 135.261 125.884 134.498 125.785C133.734 125.685 133.021 125.349 132.459 124.823L132.39 124.754L93.3994 96.6093C91.5796 94.9542 90.4808 92.652 90.3384 90.1963L89.2441 65.0154C88.5516 54.0733 64.9497 44.5438 59.3401 42.0091C42.2343 34.2942 38.5638 47.6187 44.6166 51.7047L67.1658 67.0515C68.3708 67.8691 69.3721 68.9524 70.0925 70.2179C70.8129 71.4834 71.2331 72.8974 71.3211 74.3509L72.4153 91.8446C72.5547 93.9786 72.8791 96.0964 73.3849 98.1743H73.2602L46.0848 94.7532C43.5508 94.4424 41.1804 93.3367 39.314 91.5948C37.4476 89.8528 36.1813 87.5642 35.6967 85.0576C34.5055 79.0602 33.6191 75.4728 31.306 73.5753C29.4361 72.0378 20.2252 72.6887 19.1449 87.0105C18.9787 89.3236 16.1531 95.0579 10.1557 94.9194C7.38549 94.9194 1.29112 98.0497 0.640127 104.615C0.398917 107.175 1.10433 109.735 2.62299 111.81C4.14165 113.885 6.36824 115.332 8.88141 115.876C8.88141 115.876 19.1865 117.898 24.6437 118.646C26.4489 118.863 28.1372 119.652 29.4608 120.898C30.7845 122.145 31.6739 123.782 31.9985 125.571C32.9542 130.973 34.464 138.383 36.1538 141.389C37.2203 143.384 39.7827 143.855 41.8742 143.855C43.8837 143.859 45.8178 143.09 47.276 141.708C48.9242 140.143 51.1542 135.087 52.9272 130.627C53.3217 129.606 53.9261 128.679 54.7011 127.906C55.4762 127.134 56.4048 126.532 57.4268 126.14C58.4489 125.749 59.5417 125.576 60.6347 125.633C61.7278 125.69 62.7967 125.976 63.7724 126.472C72.7201 131.07 80.9059 136.708 85.2689 146.029C86.3106 148.259 86.4447 150.807 85.6429 153.135L81.7647 164.479V164.589C80.7288 167.639 78.668 170.236 75.9332 171.939C73.1983 173.641 69.9582 174.342 66.7642 173.925L55.2402 172.415C54.1739 172.276 53.0905 172.358 52.0569 172.654C51.0233 172.951 50.0615 173.456 49.2308 174.139C48.4001 174.821 47.7181 175.667 47.227 176.624C46.736 177.581 46.4463 178.628 46.3757 179.701C46.2993 181.727 46.9897 183.709 48.3092 185.249C49.6288 186.789 51.4805 187.776 53.495 188.011L64.3125 189.396C72.6231 190.49 84.2994 196.322 90.4215 202.125C95.6668 206.829 102.143 209.942 109.092 211.101C110.68 211.39 112.167 212.082 113.411 213.11C114.655 214.138 115.615 215.468 116.198 216.973L128.345 247.861L143.415 247.487C155.285 245.229 154.634 224.439 156.435 219.522C159.205 212.098 169.925 203.607 173.707 201.363C189.275 192.111 219.415 204.134 219.415 204.134L229.235 190.435C230.453 188.731 232.199 187.478 234.203 186.869C236.207 186.26 238.356 186.331 240.316 187.069L242.795 187.997C250.453 190.825 258.845 190.96 266.59 188.379C274.335 185.798 280.969 180.656 285.4 173.8L292.63 162.622C293.567 161.166 294.206 159.538 294.51 157.833C294.815 156.129 294.779 154.38 294.404 152.69C294.029 150.999 293.323 149.399 292.327 147.983C291.331 146.566 290.064 145.361 288.6 144.436V144.436Z" fill="#EC8C92"/>
<path d="M303.226 321.077L299.555 319.137C300.162 317.833 300.468 316.41 300.452 314.971C300.435 313.533 300.095 312.117 299.458 310.827C296.12 302.821 285.303 295.425 269.762 290.563L269.388 290.439C262.463 288.278 257.587 286.283 256.202 283.61L247.074 266.033C243.736 259.593 235.994 255.437 227.42 255.437C225.324 255.52 223.252 254.97 221.473 253.858C219.694 252.746 218.291 251.125 217.447 249.204C216.881 247.732 215.995 246.404 214.852 245.316C213.71 244.229 212.339 243.409 210.841 242.916C208.415 242.156 205.855 241.924 203.333 242.234C200.81 242.545 198.383 243.391 196.214 244.717C194.684 245.662 193.209 246.693 191.796 247.806C187.266 251.199 181.615 255.437 173.79 255.437L170.673 255.604C162.002 255.604 156.407 259.163 152.418 267.141L143.262 285.508C138.359 295.314 140.603 306.409 149.08 314.456L146.226 317.475C136.364 308.112 133.76 295.148 139.536 283.652L148.706 265.285C153.346 255.978 160.493 251.434 170.562 251.434L173.665 251.268C180.23 251.268 185.05 247.653 189.303 244.467C190.849 243.26 192.463 242.14 194.136 241.116C196.838 239.49 199.858 238.465 202.991 238.108C206.124 237.752 209.297 238.074 212.295 239.052C214.362 239.744 216.25 240.886 217.823 242.395C219.396 243.903 220.616 245.742 221.395 247.778C221.949 248.9 222.821 249.834 223.902 250.464C224.984 251.095 226.226 251.393 227.476 251.324C237.6 251.324 246.77 256.365 250.814 264.163L259.873 281.74C260.191 282.377 262.033 283.832 270.621 286.519L270.995 286.643C293.877 293.804 301.051 303.902 303.281 309.276C304.147 311.124 304.592 313.141 304.582 315.182C304.572 317.223 304.109 319.237 303.226 321.077V321.077Z" fill="#93B4F6"/>
<path d="M131.17 244.924C129.785 240.866 130.298 236.337 132.736 231.434C133.496 228.117 133.632 224.689 133.137 221.323L120.879 211.322C118.097 209.066 115.95 206.126 114.646 202.79L108.344 186.64C108.206 186.294 108.081 185.947 107.97 185.587C107.017 182.959 105.379 180.633 103.227 178.848C101.075 177.064 98.4855 175.885 95.7261 175.435L89.7564 174.285C88.4304 174.041 87.2302 173.344 86.3611 172.313C85.492 171.283 85.008 169.982 84.9917 168.634C85.0431 167.787 85.2747 166.961 85.6712 166.211C86.0678 165.461 86.62 164.804 87.2909 164.285C87.9931 163.728 88.8066 163.329 89.6764 163.114C90.5462 162.899 91.452 162.873 92.3326 163.038L104.715 165.42C105.973 165.665 107.277 165.426 108.366 164.751C109.455 164.075 110.249 163.013 110.588 161.778L110.657 161.57C110.657 161.473 115.339 151.348 116.489 147.913C117.292 145.489 119.744 138.134 126.184 140.018C130.575 141.292 129.259 146.943 128.303 151.016C128.165 151.611 128.026 152.193 127.916 152.719C126.877 157.733 124.037 167.955 122.86 172.11C122.617 172.928 122.617 173.799 122.86 174.617C125.21 181.968 128.185 189.104 131.752 195.948V196.086C132.014 196.74 132.439 197.317 132.985 197.762L145.617 208.053C145.723 208.126 145.848 208.165 145.977 208.165C146.106 208.165 146.231 208.126 146.337 208.053C146.437 208.003 146.519 207.922 146.571 207.823C146.623 207.724 146.643 207.611 146.628 207.499L143.47 191.834C143.105 190.011 142.984 188.148 143.11 186.294C143.204 184.673 142.725 183.071 141.758 181.767C140.791 180.464 139.397 179.541 137.819 179.161L136.586 178.842C135.724 178.624 134.926 178.206 134.257 177.621C133.588 177.036 133.067 176.301 132.736 175.476L128.885 165.393C128.393 164.118 128.362 162.712 128.797 161.417C129.232 160.122 130.106 159.02 131.267 158.301C131.779 157.927 132.37 157.675 132.994 157.565C133.618 157.455 134.26 157.488 134.869 157.664C136.655 158.26 137.639 160.199 138.137 161.611L141.198 169.451C141.797 169.504 142.399 169.399 142.944 169.146C144.01 168.717 144.481 168.149 144.509 167.983L144.938 161.972C144.964 161.505 144.913 161.037 144.786 160.587L143.041 154.464C141.509 149.147 142.115 143.441 144.73 138.564C145.375 136.778 146.196 135.061 147.182 133.439C149.758 128.937 154.011 128.134 156.878 129.284C159.329 130.267 161.753 133.134 160.534 137.968C160.382 138.564 160.16 139.201 159.939 139.893C158.664 143.619 156.753 149.27 163.097 161.847C163.097 161.985 163.194 162.013 163.249 162.027C163.297 162.05 163.349 162.062 163.401 162.062C163.454 162.062 163.506 162.05 163.554 162.027L167.529 159.146C168.265 158.607 169.111 158.236 170.005 158.059C170.9 157.882 171.823 157.903 172.709 158.121C173.514 158.31 174.267 158.677 174.911 159.195C175.556 159.712 176.077 160.368 176.435 161.113C176.957 162.348 177.034 163.727 176.652 165.013C176.271 166.298 175.455 167.412 174.344 168.163L168.803 172.152C166.755 173.593 165.049 175.467 163.804 177.64C162.56 179.813 161.808 182.233 161.601 184.729L161.462 186.695C161.407 187.063 161.407 187.436 161.462 187.803L161.587 188.454C161.745 189.074 162.058 189.643 162.496 190.108C162.935 190.574 163.485 190.92 164.094 191.114C167.82 192.347 174.621 189.576 182.765 183.496C183.536 182.932 184.439 182.577 185.388 182.465C186.337 182.353 187.298 182.488 188.179 182.858C189.06 183.227 189.83 183.818 190.415 184.573C191.001 185.328 191.381 186.221 191.519 187.166C191.782 189.216 191.976 191.557 192.1 194.092L189.843 194.203C189.718 191.723 189.538 189.452 189.275 187.457C189.207 186.9 188.993 186.372 188.655 185.924C188.317 185.477 187.866 185.126 187.35 184.909C186.824 184.684 186.249 184.603 185.682 184.673C185.115 184.744 184.577 184.964 184.122 185.31C175.244 191.931 167.875 194.757 163.346 193.247C162.38 192.928 161.51 192.372 160.815 191.629C160.121 190.886 159.624 189.98 159.371 188.995L159.218 188.261C159.106 187.695 159.069 187.118 159.108 186.543L159.246 184.562C159.481 181.738 160.331 179 161.739 176.539C163.146 174.079 165.075 171.958 167.39 170.324L172.931 166.335C173.632 165.887 174.154 165.209 174.407 164.417C174.66 163.625 174.628 162.77 174.316 161.999C174.098 161.549 173.783 161.154 173.392 160.842C173.001 160.531 172.545 160.311 172.058 160.199C171.491 160.062 170.901 160.05 170.329 160.165C169.758 160.28 169.218 160.518 168.748 160.863L164.773 163.744C164.452 163.979 164.081 164.136 163.689 164.203C163.298 164.27 162.896 164.246 162.515 164.132C162.164 164.037 161.839 163.862 161.566 163.622C161.292 163.382 161.077 163.083 160.936 162.747C154.218 149.423 156.31 143.245 157.695 139.201C157.917 138.578 158.11 138.01 158.249 137.456C159.108 134.034 157.626 132.095 155.936 131.417C153.955 130.613 150.949 131.278 149.01 134.602C148.096 136.106 147.335 137.698 146.739 139.353L146.656 139.575C144.268 143.951 143.705 149.094 145.091 153.883L146.78 159.922C146.991 160.645 147.07 161.4 147.016 162.152L146.586 168.149C146.503 169.368 145.409 170.518 143.664 171.238C143.013 171.515 140.755 172.304 139.384 171.099L139.176 170.919L135.866 162.443C135.132 160.545 134.481 159.963 133.982 159.811C133.686 159.758 133.382 159.77 133.091 159.844C132.8 159.918 132.527 160.053 132.292 160.24C131.578 160.679 131.04 161.355 130.772 162.149C130.503 162.944 130.522 163.807 130.824 164.589L134.758 174.687C134.957 175.179 135.271 175.617 135.673 175.964C136.075 176.311 136.554 176.557 137.071 176.681L138.304 177C140.39 177.508 142.23 178.737 143.498 180.471C144.765 182.205 145.378 184.331 145.229 186.474C145.108 188.142 145.211 189.819 145.534 191.46L148.706 207.125C148.813 207.698 148.737 208.291 148.488 208.818C148.24 209.345 147.831 209.78 147.321 210.062C146.812 210.376 146.219 210.523 145.623 210.483C145.027 210.444 144.458 210.219 143.996 209.84L131.392 199.563C130.554 198.888 129.901 198.011 129.494 197.014C125.864 190.063 122.842 182.811 120.464 175.338C120.089 174.1 120.089 172.78 120.464 171.543C121.627 167.387 124.467 157.248 125.492 152.304C125.602 151.75 125.741 151.168 125.879 150.545C126.863 146.389 127.486 142.857 125.339 142.234C122.278 141.348 120.201 143.273 118.414 148.675C117.278 152.082 113.053 161.376 112.541 162.526C112.04 164.297 110.893 165.817 109.326 166.784C107.759 167.75 105.886 168.094 104.078 167.747L91.6955 165.365C91.1313 165.264 90.5522 165.284 89.9961 165.422C89.4399 165.561 88.9193 165.815 88.4682 166.168C87.9143 166.552 87.4905 167.095 87.2535 167.725C87.0164 168.356 86.9773 169.044 87.1414 169.697C87.3054 170.35 87.6649 170.938 88.1717 171.381C88.6786 171.825 89.3087 172.104 89.978 172.18L95.9338 173.329C99.0909 173.858 102.05 175.218 104.507 177.27C106.963 179.323 108.828 181.993 109.909 185.006C110.006 185.31 110.117 185.629 110.242 185.934L116.724 201.973C117.89 204.94 119.797 207.558 122.264 209.577L135.215 220.118V220.547C135.852 224.4 135.711 228.342 134.799 232.14L134.716 232.348C132.528 236.711 132.015 240.658 133.22 244.19L131.17 244.924Z" fill="white"/>
<path d="M84.5897 309.899C83.3154 294.815 94.1883 266.199 106.128 253.207C110.588 248.345 114.937 245.88 119.037 245.88H140.27C143.202 245.858 146.008 244.684 148.081 242.61C150.155 240.537 151.329 237.731 151.351 234.799C151.35 228.564 152.82 222.417 155.641 216.857C158.462 211.296 162.554 206.48 167.587 202.799C172.619 199.117 178.448 196.675 184.602 195.67C190.755 194.665 197.059 195.125 203.001 197.014L218.846 202.056C226.622 204.471 234.647 206 242.767 206.613C308.988 211.987 336.953 247.127 343.005 267.044L346.454 278.319L342.479 279.538L339.03 268.249C333.268 249.343 306.425 215.948 242.42 210.754C233.997 210.091 225.675 208.479 217.614 205.948L201.768 200.92C196.449 199.23 190.806 198.818 185.298 199.717C179.79 200.617 174.572 202.804 170.067 206.099C165.563 209.394 161.899 213.706 159.374 218.683C156.849 223.66 155.533 229.163 155.534 234.744C155.512 238.778 153.9 242.641 151.047 245.493C148.195 248.346 144.332 249.958 140.298 249.98H119.037C116.184 249.98 112.776 252.057 109.189 255.963C98.1082 268.055 87.5538 295.577 88.7311 309.497L84.5897 309.899Z" fill="#274D76"/>
</svg>
