<svg width="130" height="120" viewBox="0 0 130 120" fill="none" xmlns="http://www.w3.org/2000/svg">
<path d="M2.13294 84.7811C7.81179 92.8146 23.6295 70.9302 36.2061 77.0662C48.7827 83.2021 47.7716 43.644 36.2061 50.4032C24.6406 57.1625 9.88942 33.6852 2.13294 42.0927C-5.62355 50.5002 10.8451 66.1378 2.13294 84.7811Z" fill="#274D76"/>
<path d="M110.419 48.2702C110.419 48.2702 94.7121 7.32709 85.6259 10.7344C81.8031 12.1195 85.5428 17.1335 81.6369 18.2C75.5563 19.8622 71.8166 -1.19121 62.121 0.581698C54.5169 1.96678 60.9991 16.344 54.8355 18.1585C51.0265 19.2804 43.0622 11.9394 40.8599 16.1362C37.6465 22.2168 50.4032 41.0678 50.4032 41.0678L110.419 48.2702Z" fill="#274D76"/>
<path d="M67.9382 106.666C91.8309 106.666 128.647 77.0944 128.522 67.3711C128.522 62.1216 123.937 56.0826 118.092 50.4314C104.754 37.5501 88.4513 30.874 71.8303 30.874H53.5195C39.7932 30.874 28.5879 45.3067 28.5879 63.105C28.5879 90.8206 46.594 106.666 67.9382 106.666Z" fill="#93B4F6"/>
<path d="M83.1743 96.291C83.1743 96.291 46.234 111.361 50.6248 117.4C55.0155 123.439 89.0748 118.729 83.1743 96.291Z" fill="#274D76"/>
<path d="M97.2882 72.301C92.5374 72.301 88.6592 67.467 88.6592 61.525C88.6592 55.5829 92.5374 50.749 97.2882 50.749C102.039 50.749 105.917 55.5829 105.917 61.525C105.917 67.467 101.998 72.301 97.2882 72.301ZM97.2882 53.5192C94.061 53.5192 91.4294 57.1065 91.4294 61.525C91.4294 65.9434 94.061 69.5308 97.2882 69.5308C100.515 69.5308 103.147 65.9295 103.147 61.525C103.147 57.1204 100.515 53.5192 97.2882 53.5192V53.5192Z" fill="white"/>
<path d="M79.6283 94.3802C79.3929 94.3807 79.1614 94.3211 78.9554 94.2072C78.7494 94.0933 78.5758 93.9288 78.451 93.7292C74.0234 86.455 71.716 78.0886 71.7888 69.5733C71.7584 63.143 73.0453 56.7747 75.57 50.8607C75.6362 50.6847 75.7375 50.524 75.8678 50.3884C75.998 50.2528 76.1545 50.1451 76.3278 50.072C76.501 49.9988 76.6873 49.9617 76.8753 49.9629C77.0634 49.9641 77.2492 50.0035 77.4214 50.0788C77.5937 50.1541 77.7489 50.2638 77.8774 50.401C78.006 50.5382 78.1053 50.7002 78.1692 50.877C78.2331 51.0539 78.2604 51.2418 78.2493 51.4295C78.2383 51.6172 78.1891 51.8008 78.1048 51.9689C75.734 57.5336 74.5273 63.5246 74.559 69.5733C74.4862 77.564 76.6448 85.4164 80.7918 92.2471C80.8892 92.4008 80.9553 92.5722 80.9864 92.7515C81.0175 92.9307 81.013 93.1143 80.9731 93.2918C80.9332 93.4693 80.8587 93.6372 80.754 93.7859C80.6492 93.9346 80.5162 94.0613 80.3625 94.1585C80.1435 94.3 79.889 94.3769 79.6283 94.3802Z" fill="black"/>
<path d="M90.0445 96.0836C89.7801 96.0765 89.5222 96.0001 89.2966 95.862C89.1421 95.7636 89.0086 95.6354 88.904 95.485C88.7993 95.3347 88.7256 95.1651 88.687 94.9861C88.6483 94.807 88.6455 94.622 88.6788 94.4419C88.7122 94.2618 88.7809 94.0901 88.8811 93.9367C93.3035 87.1028 99.0572 81.2296 105.799 76.6678C112.541 72.1059 120.132 68.9487 128.121 67.3846C128.488 67.3313 128.861 67.4261 129.159 67.6482C129.456 67.8703 129.653 68.2015 129.706 68.5688C129.76 68.9362 129.665 69.3096 129.443 69.6071C129.221 69.9045 128.89 70.1015 128.522 70.1548C120.944 71.7171 113.748 74.7573 107.346 79.1017C100.943 83.4461 95.4596 89.0096 91.208 95.4741C91.0796 95.6641 90.9061 95.8192 90.703 95.9256C90.5 96.0319 90.2737 96.0862 90.0445 96.0836Z" fill="black"/>
</svg>
