<svg width="187" height="126" viewBox="0 0 187 126" fill="none" xmlns="http://www.w3.org/2000/svg">
<path d="M183.29 89.8198C173.913 100.056 147.79 72.2291 127.027 79.9995C106.265 87.7698 107.927 37.4497 127.027 46.0511C146.128 54.6525 170.561 24.7623 183.29 35.3997C196.019 46.0372 168.899 66.0932 183.29 89.8198Z" fill="#EC8C92"/>
<path d="M26.166 50.8298C26.166 50.8298 47.4964 7.96138 59.8098 11.5349C65.0178 13.0447 59.9344 18.2388 65.2393 19.3607C73.5498 21.092 78.5638 -0.917013 91.7221 0.89745C102.069 2.28254 93.2457 17.4077 101.612 19.3053C106.792 20.4826 117.596 12.8092 120.601 17.1861C124.964 23.5575 107.623 43.3504 107.623 43.3504L26.166 50.8298Z" fill="#EC8C92"/>
<path d="M83.8412 111.967C51.4025 111.967 1.41466 80.9964 1.59472 70.816C1.69168 65.2757 7.81372 59.0013 15.7503 53.1008C33.9347 39.6942 55.9581 32.5102 78.5501 32.6154H103.482C107.915 32.6118 112.305 33.4817 116.402 35.1757C120.499 36.8697 124.222 39.3546 127.358 42.488C130.494 45.6215 132.982 49.3423 134.679 53.4377C136.376 57.5331 137.25 61.9229 137.25 66.3561C137.25 95.4429 112.859 111.967 83.8412 111.967Z" fill="#93B4F6"/>
<path d="M63.1474 101.094C63.1474 101.094 113.301 116.884 107.346 123.186C101.39 129.488 55.0862 124.599 63.1474 101.094Z" fill="#EC8C92"/>
<path d="M44.0065 77.2851C41.787 77.2879 39.6165 76.6322 37.7697 75.4011C35.9229 74.17 34.4826 72.4187 33.6314 70.3689C32.7801 68.3191 32.556 66.0628 32.9874 63.8856C33.4187 61.7084 34.4861 59.708 36.0546 58.1376C37.6231 56.5672 39.6222 55.4973 41.7989 55.0633C43.9755 54.6293 46.232 54.8506 48.2828 55.6994C50.3337 56.5481 52.0868 57.9861 53.3202 59.8314C54.5536 61.6767 55.2118 63.8463 55.2118 66.0659C55.2118 69.039 54.0317 71.8906 51.9307 73.9942C49.8297 76.0978 46.9796 77.2814 44.0065 77.2851V77.2851ZM44.0065 57.6169C42.3349 57.6141 40.6999 58.1074 39.3087 59.0341C37.9174 59.9608 36.8323 61.2793 36.1907 62.8229C35.5491 64.3666 35.3798 66.0659 35.7043 67.7057C36.0287 69.3456 36.8323 70.8523 38.0134 72.0353C39.1944 73.2183 40.6999 74.0244 42.3392 74.3515C43.9786 74.6787 45.678 74.5122 47.2227 73.8731C48.7674 73.234 50.0878 72.1511 51.0168 70.7613C51.9458 69.3716 52.4416 67.7375 52.4416 66.0659C52.438 63.8286 51.5486 61.6838 49.9679 60.1005C48.3871 58.5171 46.2438 57.6242 44.0065 57.6169V57.6169Z" fill="white"/>
<path d="M67.9678 99.03C67.7068 99.0282 67.4516 98.9528 67.2316 98.8124C67.0117 98.6721 66.8358 98.4724 66.7244 98.2365C66.6129 98.0005 66.5705 97.7379 66.6018 97.4788C66.6331 97.2198 66.7368 96.9749 66.9012 96.7723C71.6649 90.9577 74.5614 83.84 75.2114 76.3514C75.8614 68.8628 74.2346 61.3524 70.544 54.8041C70.4531 54.6458 70.3942 54.4712 70.3707 54.2902C70.3472 54.1092 70.3596 53.9254 70.4072 53.7492C70.4548 53.573 70.5366 53.4078 70.648 53.2633C70.7594 53.1187 70.8982 52.9974 71.0565 52.9065C71.2147 52.8156 71.3893 52.7567 71.5703 52.7332C71.7513 52.7097 71.9352 52.7222 72.1114 52.7698C72.2876 52.8174 72.4527 52.8992 72.5973 53.0106C72.7419 53.122 72.8631 53.2607 72.9541 53.419C76.9198 60.4529 78.6687 68.5206 77.9718 76.5652C77.2748 84.6099 74.1644 92.2566 69.048 98.5036C68.919 98.6669 68.755 98.7989 68.568 98.8901C68.381 98.9812 68.1758 99.029 67.9678 99.03V99.03Z" fill="black"/>
<path d="M53.8129 100.832C53.6118 100.83 53.4134 100.784 53.2316 100.698C53.0498 100.612 52.889 100.488 52.7602 100.333C33.6737 77.4653 2.02451 73.7117 1.70594 73.6701C1.52405 73.6501 1.34794 73.5945 1.18755 73.5064C1.02716 73.4183 0.88575 73.2994 0.77128 73.1566C0.540099 72.8683 0.432788 72.5 0.473196 72.1326C0.513604 71.7653 0.698359 71.4291 0.986686 71.1979C1.27501 70.9667 1.64344 70.8596 2.01079 70.9C3.39588 71.0523 35.0866 74.8336 54.8795 98.6017C55.1107 98.8836 55.2216 99.2452 55.1878 99.6082C55.1541 99.9712 54.9786 100.306 54.6994 100.541C54.4464 100.737 54.1331 100.84 53.8129 100.832Z" fill="black"/>
</svg>
